<svg xmlns="http://www.w3.org/2000/svg" viewBox="0 0 698.22 366.39"><defs><style>.cls-1{fill:#d0d0d0;}</style></defs><g id="Layer_2" data-name="Layer 2"><g id="Layer_1-2" data-name="Layer 1"><path class="cls-1" d="M473.49,110.87c.63,10.77,1,16.16,1.59,26.94q-41.16,2.31-82.33,3.38L390.11,26.71q15.18-.33,30.35-.91,1.6,43.73,3.23,87.46,24.92-.95,49.8-2.39"/><path class="cls-1" d="M187,333.27l-1.39,4h-7.06l9.77-25h6.49l9.81,25h-7l-1.42-4Zm4.6-12.77-2.6,7.13h5.17Z"/><polygon class="cls-1" points="228.12 337.22 221.67 337.22 213.21 324.06 213.21 337.22 206.62 337.22 206.62 312.26 213.08 312.26 221.52 326.17 221.52 312.26 228.12 312.26 228.12 337.22"/><path class="cls-1" d="M251.84,317.11a25.29,25.29,0,0,1-7.7,1v19.11h-6.6V318.11h-7.1v-5.85h11.77a29.28,29.28,0,0,0,8.13-.89Z"/><rect class="cls-1" x="253.45" y="312.26" width="6.56" height="24.96"/><path class="cls-1" d="M284.54,334a12.44,12.44,0,0,1-9.16,3.64,12.3,12.3,0,0,1-9.1-3.64,13.65,13.65,0,0,1,0-18.47,12.26,12.26,0,0,1,9.1-3.64,12.4,12.4,0,0,1,9.16,3.64,13.62,13.62,0,0,1,0,18.47m-4.78-14a5.62,5.62,0,0,0-4.38-1.85,5.48,5.48,0,0,0-4.32,1.85,7.68,7.68,0,0,0,0,9.56,5.48,5.48,0,0,0,4.32,1.85,5.62,5.62,0,0,0,4.38-1.85,7.64,7.64,0,0,0,0-9.56"/><polygon class="cls-1" points="313.93 337.22 305.58 337.22 300.94 330.52 296.35 337.22 287.97 337.22 297.06 324.71 287.97 312.26 296.38 312.26 300.94 318.89 305.51 312.26 313.93 312.26 304.84 324.71 313.93 337.22"/><rect class="cls-1" x="315.53" y="312.26" width="6.56" height="24.96"/><path class="cls-1" d="M325.84,337.23v-25h9.77q6.21,0,9.74,3.74a12.27,12.27,0,0,1,3.17,8.67,12,12,0,0,1-3.5,8.92q-3.7,3.63-9.91,3.64Zm9.2-5.89a6.6,6.6,0,0,0,5.07-2,6.68,6.68,0,0,0,1.74-4.78,6.28,6.28,0,0,0-1.64-4.56,6.74,6.74,0,0,0-5.1-1.89h-2.67v13.23Z"/><path class="cls-1" d="M356.8,333.27l-1.39,4h-7.06l9.76-25h6.5l9.8,25h-7l-1.43-4Zm4.6-12.77-2.61,7.13H364Z"/><polygon class="cls-1" points="397.88 337.22 391.42 337.22 382.98 324.06 382.98 337.22 376.38 337.22 376.38 312.26 382.83 312.26 391.28 326.17 391.28 312.26 397.88 312.26 397.88 337.22"/><path class="cls-1" d="M421.6,317.11a25.36,25.36,0,0,1-7.71,1v19.11H407.3V318.11h-7.1v-5.85H412a29.28,29.28,0,0,0,8.13-.89Z"/><rect class="cls-1" x="420.7" y="325.6" width="10.31" height="3.96"/><path class="cls-1" d="M443.92,328.27H441v9h-6.6v-25h11.8a9.36,9.36,0,0,1,6.78,2.35,7.11,7.11,0,0,1,2.14,5.28,8.12,8.12,0,0,1-1.18,4.28,7,7,0,0,1-3.35,3L457,337.23H449.2Zm1.39-5.17a3.36,3.36,0,0,0,2.43-.82,2.49,2.49,0,0,0,.71-1.82c0-1.78-1-2.67-3.07-2.67H441v5.31Z"/><rect class="cls-1" x="458.65" y="312.26" width="6.56" height="24.96"/><path class="cls-1" d="M493.17,325.38a11.65,11.65,0,0,1-3.81,9.17,12.33,12.33,0,0,1-8.46,3.06,13,13,0,0,1-8.95-3.2,12.28,12.28,0,0,1-4.06-9.74,12.15,12.15,0,0,1,3.92-9.48,12.65,12.65,0,0,1,8.88-3.32q7,0,10.38,5.17l-5.17,3.81a6.07,6.07,0,0,0-9.49-1.42,6.82,6.82,0,0,0-1.82,5,7.29,7.29,0,0,0,1.71,5.07,6.23,6.23,0,0,0,4.78,1.88,5.26,5.26,0,0,0,3.89-1.49,6.1,6.1,0,0,0,1.6-4.5Z"/><polygon class="cls-1" points="517.67 337.22 511.11 337.22 511.11 327.52 502.05 327.52 502.05 337.22 495.49 337.22 495.49 312.26 502.05 312.26 502.05 321.96 511.11 321.96 511.11 312.26 517.67 312.26 517.67 337.22"/><polygon class="cls-1" points="259.19 347.95 259.19 366.11 257.14 366.11 257.14 351.64 251.33 366.11 249.02 366.11 243.21 351.64 243.21 366.11 241.14 366.11 241.14 347.95 243.99 347.95 250.16 363.75 256.34 347.95 259.19 347.95"/><path class="cls-1" d="M274.91,361.23h-8.72l-1.94,4.88h-2.34l7.5-18.16h2.28l7.5,18.16h-2.34Zm-.83-2.05-3.53-8.87L267,359.18Z"/><path class="cls-1" d="M292.44,349.61a29.78,29.78,0,0,1-5.58.39H286v16.11h-2.1V350h-6.15V348h9.1a28.87,28.87,0,0,0,5.27-.39Z"/><path class="cls-1" d="M306.5,353.17a4.81,4.81,0,0,0-2.1-2.52,6.11,6.11,0,0,0-3.27-.88,5.86,5.86,0,0,0-4.36,1.74,7.51,7.51,0,0,0-1.92,5.47,8,8,0,0,0,1.53,5.13,5.93,5.93,0,0,0,5,2.18,6.16,6.16,0,0,0,4.1-1.29,4.57,4.57,0,0,0,1.58-3.71,6.09,6.09,0,0,0-.11-1.2H309c0,.38,0,.71,0,1a7,7,0,0,1-2,5.34,7.81,7.81,0,0,1-5.68,2,8.06,8.06,0,0,1-6.56-2.77,10.15,10.15,0,0,1-2.1-6.67,9.28,9.28,0,0,1,2.62-7,8,8,0,0,1,5.86-2.28,8.66,8.66,0,0,1,4.51,1.19,6.54,6.54,0,0,1,2.86,3.47Z"/><polygon class="cls-1" points="326.44 347.95 326.44 366.11 324.34 366.11 324.34 357.99 314.54 357.99 314.54 366.11 312.44 366.11 312.44 347.95 314.54 347.95 314.54 355.94 324.34 355.94 324.34 347.95 326.44 347.95"/><path class="cls-1" d="M342.16,361.23h-8.72l-1.94,4.88h-2.34l7.5-18.16h2.28l7.5,18.16H344.1Zm-.83-2.05-3.53-8.87-3.52,8.87Z"/><path class="cls-1" d="M362,348a6.57,6.57,0,0,1,4.64,1.53,5,5,0,0,1,1.54,3.82,5.09,5.09,0,0,1-1.54,3.86,6.46,6.46,0,0,1-4.64,1.58h-4.36v7.36h-2.09V348Zm.11,8.77a4.15,4.15,0,0,0,2.93-1,3.16,3.16,0,0,0,1-2.41,3.08,3.08,0,0,0-1-2.39,4.15,4.15,0,0,0-2.93-1h-4.47v6.72Z"/><path class="cls-1" d="M385,350.62a11.3,11.3,0,0,1,0,12.81,8.55,8.55,0,0,1-12.94,0,11.26,11.26,0,0,1,0-12.81,8.57,8.57,0,0,1,12.94,0m-1.87,11.75a9.19,9.19,0,0,0,0-10.68,6.48,6.48,0,0,0-9.21,0,9.19,9.19,0,0,0,0,10.68,6.48,6.48,0,0,0,9.21,0"/><polygon class="cls-1" points="410.5 347.95 405.6 366.11 403.29 366.11 399.42 351.58 395.54 366.11 393.22 366.11 388.33 347.95 390.53 347.95 394.4 362.56 398.23 347.95 400.59 347.95 404.46 362.56 408.3 347.95 410.5 347.95"/><path class="cls-1" d="M418.85,348q4.69,0,7,2.7a9.14,9.14,0,0,1,2.06,6.23,9.28,9.28,0,0,1-2.16,6.42q-2.49,2.81-7.29,2.81h-5.29V348Zm-.13,16.13a6.84,6.84,0,0,0,5.53-2.17,7.64,7.64,0,0,0,1.55-5,7.23,7.23,0,0,0-1.48-4.8A6.61,6.61,0,0,0,419,350h-3.63v14.08Z"/><path class="cls-1" d="M442.71,364.08v2H431.33V348h6a28.67,28.67,0,0,0,5.26-.39l.31,2.05a29.66,29.66,0,0,1-5.57.39h-3.9v6h8v2h-8v6.06Z"/><path class="cls-1" d="M452.9,358.28h-4.79v7.83H446V348h6.44a7.59,7.59,0,0,1,4.33,1.09,4.44,4.44,0,0,1,1.87,3.91,4.65,4.65,0,0,1-3.53,4.86l4.49,8.3h-2.52Zm-4.79-2h4.69a3.89,3.89,0,0,0,2.75-.92,3.1,3.1,0,0,0,0-4.45,4.11,4.11,0,0,0-2.76-.86h-4.66Z"/><path class="cls-1" d="M121.68,231.5c-.87,6.78-1.3,10.17-2.18,16.94q-25.73-3.27-51.34-7.36,5.67-35.78,11.33-71.57c7.63,1.21,11.44,1.79,19.08,2.91l-8,54.8q15.56,2.29,31.15,4.28"/><path class="cls-1" d="M148,240.3c-2.19,4.37-3.29,6.56-5.5,10.94-8.55-1-12.82-1.51-21.36-2.59q19.22-34,37.51-68.52c7.54.83,11.3,1.22,18.85,2q10.82,37.56,22.61,74.8c-8.53-.7-12.79-1.07-21.31-1.87-1.3-4.75-1.94-7.11-3.22-11.85-11-1.07-16.56-1.65-27.58-2.88m17.69-35.36c-3.93,7.91-5.91,11.87-9.91,19.76,6.16.67,9.25,1,15.41,1.61-2.24-8.55-3.34-12.82-5.5-21.37"/><path class="cls-1" d="M258.76,202.25c-6.17,1.62-13.79,2.18-22.81,1.62q-1.74,27.67-3.5,55.37c-8-.5-12-.78-20-1.38q2.07-27.66,4.13-55.33c-8.34-.62-12.51-1-20.85-1.69.59-6.76.88-10.15,1.47-16.91q17.12,1.42,34.25,2.63c10.11.66,18.05.24,23.82-1.18,1.39,6.75,2.09,10.12,3.52,16.87"/><path class="cls-1" d="M322.18,204.22c-6.11,1.85-13.69,2.7-22.72,2.46q-.72,27.73-1.43,55.48c-8-.21-12-.34-20.06-.64q1-27.72,2.06-55.45c-8.35-.31-12.54-.49-20.89-.9.34-6.79.5-10.17.84-17q17.14.79,34.3,1.35c10.12.29,18.05-.43,23.75-2.07,1.64,6.69,2.47,10,4.15,16.73"/><path class="cls-1" d="M328.08,190.2c10.6.1,15.91.11,26.51,0,10.13-.07,18-1.07,23.56-2.91,1.93,6.63,2.9,9.94,4.85,16.57-6.24,2.07-15.51,3.23-27.76,3.31-3.16,0-4.73,0-7.88,0,0,4.43,0,6.65,0,11.08,11,0,16.49-.09,27.49-.29l.3,16.25c-11.1.21-16.65.27-27.75.29,0,4.43,0,6.65,0,11.08q16.76,0,33.51-.41c.14,6.84.22,10.25.37,17.08q-27,.49-53.91.34l.66-72.46"/><path class="cls-1" d="M497.24,183.22q3.3,36.09,6.61,72.17c-7.92.72-11.88,1.06-19.8,1.7q-1.74-21.57-3.46-43.13-5.71,22.17-11.69,44.28c-6.37.46-9.55.67-15.92,1.07Q444.1,238.19,435.49,217q1.15,21.61,2.32,43.21c-7.93.43-11.9.62-19.83,1q-1.55-36.19-3.08-72.41c10.64-.45,16-.72,26.6-1.33q8.72,22.85,17.76,45.55,5.87-23.72,11.42-47.51c10.63-.81,15.94-1.25,26.56-2.23"/><path class="cls-1" d="M515.2,254.31q-3.56-36.06-7.08-72.12c7.62-.75,11.44-1.14,19.06-2q3.95,36,7.9,72c-8,.87-11.92,1.28-19.88,2.06"/><path class="cls-1" d="M618.36,241.08c-10.06,1.6-15.09,2.36-25.16,3.81-6.71-6.91-10-10.37-16.62-17.34-4.45,8.46-6.71,12.68-11.29,21.11-10.13,1.29-15.2,1.9-25.35,3q11.61-19.57,22.88-39.36-15.66-16.17-31-32.65c9.77-1.1,14.65-1.68,24.41-2.93,6.26,7,9.42,10.44,15.81,17.34,4.31-8.35,6.44-12.53,10.63-20.92,9.75-1.39,14.61-2.13,24.34-3.67q-10.42,20-21.21,39.72,16.11,16.08,32.54,31.85"/><path class="cls-1" d="M32.71,4.92Q38.5,44.63,45,84.21,61.56,47.67,77.54,10.85q16.3,2,32.66,3.72-26,54.95-53.71,109.06-16.4-2-32.78-4.34Q11,59.82,0,0,16.34,2.6,32.71,4.92"/><path class="cls-1" d="M127.66,113.15c-3.34,7-5,10.47-8.42,17.43q-17-1.7-34-3.55Q114.91,72.9,142.73,17.79q14.88,1.37,29.78,2.51,18.28,59,38.59,117.33-17-1-34-2.18c-2.24-7.43-3.36-11.16-5.55-18.6q-22-1.69-43.92-3.7m27-56.39q-7.49,15.78-15.08,31.52c9.8.88,14.7,1.3,24.5,2.07q-4.77-16.78-9.42-33.59"/><path class="cls-1" d="M324.7,141.22q-15.63-.1-31.26-.43-19.69-30.52-38.62-61.52-1.14,30.17-2.3,60.32-16-.6-31.93-1.45,3-57.16,6-114.34,14.82.78,29.68,1.35Q274.6,57.87,293.8,90.08q.65-31.89,1.32-63.78,15.17.33,30.35.42-.39,57.24-.77,114.5"/><path class="cls-1" d="M342.83,141.27q-.06-57.26-.14-114.5,15.1,0,30.19-.25.87,57.24,1.73,114.49-15.89.26-31.78.26"/><path class="cls-1" d="M567.48,102.83c1.08,10.74,1.62,16.11,2.71,26.85q-41.06,4-82.18,6.81-3.69-57.14-7.39-114.26,15.15-1,30.29-2.18,3.45,43.62,6.88,87.24,24.86-2,49.69-4.46"/><path class="cls-1" d="M611.35,106.86c-1.8,7.53-2.7,11.3-4.54,18.83q-17,1.94-34,3.73,17.57-59.2,33.1-118.95,14.86-1.82,29.68-3.86Q666,60.4,698.22,113.09q-16.86,2.63-33.74,5.08c-3.77-6.79-5.65-10.19-9.38-17q-21.86,3-43.75,5.69M625.76,46q-4,17-8.07,34c9.77-1.22,14.65-1.86,24.41-3.18Q633.88,61.48,625.76,46"/></g></g></svg>