<svg xmlns="http://www.w3.org/2000/svg" viewBox="0 0 700 210.99"><defs><style>.cls-1{fill:#d0d0d0;}</style></defs><g id="Layer_2" data-name="Layer 2"><g id="Layer_1-2" data-name="Layer 1"><path class="cls-1" d="M93.22,59.25c1.43,11.66-2,24.23-10.16,32.72a50,50,0,0,1-29,14.31c-11.24,1.43-23.9-.22-33.67-6.23C9.51,93.36,2.7,81.91.58,69.47A42.17,42.17,0,0,1,10,35.23c7.8-8.91,19.7-14.36,31.36-16,14.85-2,30.32,1.17,40.78,12.59q-8.77,7.59-17.49,15.28c-4.77-6.65-13.34-8.71-21-7.91-5.05.53-11.42,3.76-14.58,7.83-3.89,5-5.13,11.65-4.21,17.84s3.65,12.35,8.71,16.2,11.91,4.87,18.19,4a21,21,0,0,0,13.41-6.93c3.35-3.92,4.86-10.94,3.89-16q12-1.53,24.11-2.92"/><path class="cls-1" d="M178.8,80.49c-8.14,8.76-20.14,14.19-32,15.18-11.67,1-24.59-1.75-34-9.08A45.34,45.34,0,0,1,96.23,56.7,44,44,0,0,1,106,23.88c8.32-9.72,20.85-14.66,32.66-15.76,12.09-1.12,24.86,1.52,35.24,9.47,9.34,7.15,14.83,18.85,15.65,30.47s-2.85,23.86-10.79,32.43M157.45,34.21c-4-3.49-11.65-5.34-16.79-4.87s-12.1,3.74-15.35,7.84-5,11.72-4.52,16.86,3.76,12.18,7.76,15.62,11.29,5.26,16.28,4.79,12.08-3.65,15.39-7.72S165.41,55.09,165,50s-3.51-12.28-7.54-15.74"/><path class="cls-1" d="M264.08,66.55q.39,10,.76,20.08-30.67,1.22-61.3,3.19-2.82-42.52-5.63-85.06,12.35-.79,24.7-1.49,1.78,32.52,3.59,65.05,18.93-1,37.88-1.77"/><path class="cls-1" d="M335.74,65q0,10,.1,20.1-30.69.21-61.35,1.18l-2.85-85.2Q284,.7,296.37.4q.72,32.57,1.46,65.14,19-.39,37.91-.53"/><path class="cls-1" d="M368.4,71.66c-2.07,5.39-3.1,8.09-5.15,13.48q-12.74-.08-25.47,0Q355.33,42.29,374.05,0q12.17.15,24.33.42,17.31,42.93,33.43,86.32-12.68-.48-25.34-.85c-1.91-5.46-2.87-8.19-4.8-13.65q-16.64-.39-33.27-.58M385.86,28.3q-5,12.09-10,24.21,9.47.12,18.93.33-4.45-12.29-9-24.54"/><path class="cls-1" d="M445.24,77.43C436.09,68.2,432.88,56.51,432.82,44c-.06-12.21,6.22-24.37,15.89-31.87C458.14,4.81,471,1.88,482.77,2.58,497.68,3.47,512.1,9.71,520,23q-10.08,5.73-20.1,11.59c-3.33-7.45-11.23-11.24-18.86-12-5-.47-11.94,1.45-15.79,4.83-4.87,4.28-7.43,10.76-7.75,17.17-.34,6.82,1.83,13.94,6.62,18.87,3.68,3.8,10.51,6.59,15.76,6.76,7.57.23,14.85-2.11,19.33-8.63-9.33-.85-18.77-1.7-27.68-4.79,2.28-6.07,3.43-9.1,5.73-15.16,10.35,2.93,21.17,3.79,31.84,4.66,5.5.41,8.26.62,13.76,1.06q-1.79,22.26-3.55,44.54c-5.18-.41-7.78-.6-13-1-1.52-3.92-2.29-5.88-3.82-9.8-7.6,7-18.35,9.53-28.37,9a44.53,44.53,0,0,1-28.91-12.71"/><path class="cls-1" d="M540.07,8.11q17,1.48,34,3.18c10.09.87,20.49,1.87,30.57.24q1.74,10.07,3.44,20.13c-11.68,1.79-23.67.62-35.36-.44l-9.9-1c-.5,5.19-.76,7.78-1.26,13q17.07,1.68,34.12,3.58-1.08,9.49-2.14,19-16.9-1.89-33.82-3.55c-.51,5.19-.76,7.78-1.26,13q20.19,2,40.34,4.29l-2.31,20q-31.82-3.63-63.7-6.42,3.66-42.46,7.3-84.93"/><path class="cls-1" d="M686.67,111.81q-11.53-1.82-23.09-3.53Q651.66,83.77,639.23,59.5q-3,22.27-5.92,44.54-11.82-1.58-23.66-3Q614.81,58.71,620,16.41q12,1.47,24.06,3.06Q656.56,45,668.57,70.86q3.45-23.49,6.91-47Q687.75,25.7,700,27.62l-13.33,84.19"/><path class="cls-1" d="M183.86,114.49q3.22,42.51,6.47,85-11.16.85-22.31,1.82Q165.82,176,163.6,150.6q-6.49,26.1-12.64,52.27-9,.85-17.9,1.79-11.2-24.45-22.74-48.74l5.7,50.59q-11.14,1.25-22.25,2.62-5.23-42.28-10.46-84.6,16.18-2,32.41-3.75Q127.57,147,139,173.44q6-28.16,12.32-56.22,16.24-1.45,32.5-2.73"/><path class="cls-1" d="M225.17,183.59c-1.61,5.51-2.4,8.27-4,13.78q-12.09.75-24.17,1.62,13.71-43.83,28.63-87.27,11.57-.64,23.14-1.19,19.33,41.7,37.49,83.9-12,.34-24.06.85c-2.18-5.32-3.27-8-5.48-13.3q-15.8.71-31.58,1.61m13.62-44.41Q234.86,151.57,231,164q9-.5,18-.92-5.06-12-10.18-23.89"/><path class="cls-1" d="M349.31,124.86c-8.72,2.76-18.15,3.42-27.24,3.55q.38,32.63.76,65.27-11.29.12-22.61.38l-1.47-65.25q-12.56.3-25.09.71l-.69-20q21-.69,42-1c9.67-.29,19.66-.52,29-3.28q2.68,9.8,5.33,19.61"/><path class="cls-1" d="M437,155c-.41,11.57-5.54,23.46-14.46,30.75-8.28,6.76-19,9.5-29.33,9.61A46.38,46.38,0,0,1,362.63,184c-9.32-8.47-13.84-20.89-14-33.31-.13-12,4.9-24.37,14-32.34,8.52-7.48,20.52-11.1,31.79-10.85,14.49.31,28.44,6.12,36.35,18.78q-9.37,6.13-18.7,12.38c-3.37-7.15-10.91-10.88-18.47-11.09A20.07,20.07,0,0,0,378.74,133a22.51,22.51,0,0,0-6.61,17c.26,6,1.4,12.53,5.73,17.37,3.68,4.1,11.05,6.81,16.44,6.76s10-1.56,13.6-4.76c3.81-3.43,6.21-10.1,6.05-15.17q11.54.36,23,.86"/><path class="cls-1" d="M519.11,200.73q-11.22-.94-22.44-1.76l2.4-33q-15.75-1.12-31.49-2.05-1,16.53-1.91,33.07-11.24-.66-22.46-1.18,2-42.57,4-85.15,11.7.54,23.4,1.22-1,16.53-1.91,33.07,15.9.95,31.78,2.07l2.4-33q11.68.84,23.37,1.82l-7.11,84.95"/><path class="cls-1" d="M556,190.57c-2.46,5.19-3.68,7.78-6.11,13q-12-1.18-24.12-2.24,20.51-41.1,42.15-81.61,11.53,1.2,23.06,2.51Q603.5,166.44,614.76,211q-12-1.58-23.94-3c-1.31-5.6-2-8.41-3.3-14q-15.74-1.81-31.48-3.43m20.53-41.68q-5.87,11.61-11.67,23.25,9,.93,17.93,2-3.09-12.61-6.26-25.2"/></g></g></svg>