<svg xmlns="http://www.w3.org/2000/svg" viewBox="0 0 699.96 346.2"><defs><style>.cls-1{fill:#d0d0d0;}</style></defs><g id="Layer_2" data-name="Layer 2"><g id="Layer_1-2" data-name="Layer 1"><path class="cls-1" d="M202.7,317.63,201.5,321h-6.1l8.43-21.53h5.61L217.89,321h-6.06l-1.23-3.41Zm4-11-2.25,6.15h4.46Z"/><polygon class="cls-1" points="238.13 321.04 232.56 321.04 225.27 309.69 225.27 321.04 219.59 321.04 219.59 299.51 225.15 299.51 232.44 311.51 232.44 299.51 238.13 299.51 238.13 321.04"/><path class="cls-1" d="M258.59,303.69a21.8,21.8,0,0,1-6.64.86V321h-5.7V304.55h-6.12v-5h10.15a24.84,24.84,0,0,0,7-.77Z"/><rect class="cls-1" x="259.97" y="299.51" width="5.66" height="21.53"/><path class="cls-1" d="M286.8,318.24a10.73,10.73,0,0,1-7.91,3.14,10.57,10.57,0,0,1-7.84-3.14,11.75,11.75,0,0,1,0-15.93,10.57,10.57,0,0,1,7.84-3.14,10.73,10.73,0,0,1,7.91,3.14,11.75,11.75,0,0,1,0,15.93m-4.12-12.09a4.9,4.9,0,0,0-3.79-1.6,4.74,4.74,0,0,0-3.72,1.6,6.63,6.63,0,0,0,0,8.25,4.71,4.71,0,0,0,3.72,1.6,4.87,4.87,0,0,0,3.79-1.6,6.63,6.63,0,0,0,0-8.25"/><polygon class="cls-1" points="312.15 321.04 304.95 321.04 300.95 315.26 296.98 321.04 289.75 321.04 297.59 310.25 289.75 299.51 297.01 299.51 300.95 305.23 304.89 299.51 312.15 299.51 304.3 310.25 312.15 321.04"/><rect class="cls-1" x="313.53" y="299.51" width="5.66" height="21.53"/><path class="cls-1" d="M322.42,321V299.51h8.43c3.56,0,6.37,1.07,8.4,3.23a10.59,10.59,0,0,1,2.73,7.48,10.36,10.36,0,0,1-3,7.69,11.68,11.68,0,0,1-8.55,3.13Zm7.94-5.07a5.65,5.65,0,0,0,4.37-1.73,5.75,5.75,0,0,0,1.5-4.12,5.44,5.44,0,0,0-1.41-3.93,5.82,5.82,0,0,0-4.4-1.64h-2.31V316Z"/><path class="cls-1" d="M349.12,317.63l-1.2,3.41h-6.09l8.43-21.53h5.6L364.32,321h-6.06L357,317.63Zm4-11-2.25,6.15h4.47Z"/><polygon class="cls-1" points="384.56 321.04 378.99 321.04 371.7 309.69 371.7 321.04 366.01 321.04 366.01 299.51 371.58 299.51 378.87 311.51 378.87 299.51 384.56 299.51 384.56 321.04"/><path class="cls-1" d="M405,303.69a21.83,21.83,0,0,1-6.65.86V321h-5.69V304.55h-6.12v-5h10.15a24.76,24.76,0,0,0,7-.77Z"/><rect class="cls-1" x="404.24" y="311.02" width="8.89" height="3.41"/><path class="cls-1" d="M424.27,313.32h-2.52v7.73h-5.69V299.51h10.18a8,8,0,0,1,5.85,2,6.12,6.12,0,0,1,1.84,4.55,7.06,7.06,0,0,1-1,3.69,6.1,6.1,0,0,1-2.9,2.59l5.57,8.68h-6.77Zm1.2-4.46a3,3,0,0,0,2.09-.7,2.16,2.16,0,0,0,.62-1.58c0-1.53-.88-2.3-2.65-2.3h-3.78v4.58Z"/><rect class="cls-1" x="436.97" y="299.51" width="5.66" height="21.53"/><path class="cls-1" d="M466.75,310.83a10,10,0,0,1-3.29,7.9,10.57,10.57,0,0,1-7.29,2.65,11.21,11.21,0,0,1-7.72-2.76,10.63,10.63,0,0,1-3.51-8.41,10.51,10.51,0,0,1,3.39-8.18,10.93,10.93,0,0,1,7.66-2.86q6,0,8.95,4.46l-4.46,3.29a5.25,5.25,0,0,0-8.18-1.23,5.89,5.89,0,0,0-1.57,4.31,6.28,6.28,0,0,0,1.47,4.37,5.33,5.33,0,0,0,4.12,1.63,4.54,4.54,0,0,0,3.36-1.29,5.27,5.27,0,0,0,1.38-3.88Z"/><polygon class="cls-1" points="487.89 321.04 482.23 321.04 482.23 312.68 474.42 312.68 474.42 321.04 468.75 321.04 468.75 299.51 474.42 299.51 474.42 307.88 482.23 307.88 482.23 299.51 487.89 299.51 487.89 321.04"/><polygon class="cls-1" points="264.93 330.3 264.93 345.96 263.16 345.96 263.16 333.47 258.15 345.96 256.16 345.96 251.15 333.47 251.15 345.96 249.36 345.96 249.36 330.3 251.82 330.3 257.14 343.92 262.47 330.3 264.93 330.3"/><path class="cls-1" d="M278.49,341.75H271L269.29,346h-2l6.47-15.66h2L282.18,346h-2Zm-.72-1.77-3-7.65L271.68,340Z"/><path class="cls-1" d="M293.61,331.73a25.25,25.25,0,0,1-4.81.33h-.74V346h-1.81v-13.9H281V330.3h7.85a24.28,24.28,0,0,0,4.54-.34Z"/><path class="cls-1" d="M305.73,334.79a4.16,4.16,0,0,0-1.8-2.17,5.28,5.28,0,0,0-2.83-.75,5.06,5.06,0,0,0-3.76,1.49,6.49,6.49,0,0,0-1.65,4.72,6.9,6.9,0,0,0,1.32,4.43,5.11,5.11,0,0,0,4.29,1.88,5.27,5.27,0,0,0,3.54-1.12,3.93,3.93,0,0,0,1.36-3.2,5.86,5.86,0,0,0-.09-1h1.82c0,.32,0,.6,0,.82a6,6,0,0,1-1.77,4.61,6.75,6.75,0,0,1-4.9,1.72,7,7,0,0,1-5.66-2.39,8.78,8.78,0,0,1-1.81-5.75,8.05,8.05,0,0,1,2.26-6,7,7,0,0,1,5.06-2,7.49,7.49,0,0,1,3.89,1,5.62,5.62,0,0,1,2.46,3Z"/><polygon class="cls-1" points="322.94 330.3 322.94 345.96 321.12 345.96 321.12 338.95 312.67 338.95 312.67 345.96 310.86 345.96 310.86 330.3 312.67 330.3 312.67 337.19 321.12 337.19 321.12 330.3 322.94 330.3"/><path class="cls-1" d="M336.5,341.75H329L327.3,346h-2l6.46-15.66h2L340.19,346h-2Zm-.72-1.77-3-7.65-3,7.65Z"/><path class="cls-1" d="M353.59,330.29a5.68,5.68,0,0,1,4,1.33,4.27,4.27,0,0,1,1.32,3.29,4.38,4.38,0,0,1-1.32,3.33,5.56,5.56,0,0,1-4,1.37h-3.76V346H348V330.29Zm.09,7.57a3.56,3.56,0,0,0,2.52-.83,2.68,2.68,0,0,0,.86-2.08,2.6,2.6,0,0,0-.86-2.05,3.52,3.52,0,0,0-2.52-.84h-3.85v5.8Z"/><path class="cls-1" d="M373.47,332.6a9.69,9.69,0,0,1,0,11,7.38,7.38,0,0,1-11.16,0,9.73,9.73,0,0,1,0-11,7.38,7.38,0,0,1,11.16,0m-1.61,10.14a7.92,7.92,0,0,0,0-9.22,5.58,5.58,0,0,0-7.94,0,8,8,0,0,0,0,9.22,5.6,5.6,0,0,0,7.94,0"/><polygon class="cls-1" points="395.44 330.3 391.21 345.96 389.23 345.96 385.89 333.43 382.54 345.96 380.55 345.96 376.32 330.3 378.22 330.3 381.55 342.89 384.86 330.3 386.9 330.3 390.23 342.89 393.54 330.3 395.44 330.3"/><path class="cls-1" d="M402.65,330.3q4,0,6.08,2.32A7.9,7.9,0,0,1,410.5,338a7.39,7.39,0,0,1-8.15,8h-4.56V330.3Zm-.11,13.91a5.91,5.91,0,0,0,4.76-1.87,6.58,6.58,0,0,0,1.34-4.32,6.23,6.23,0,0,0-1.27-4.14,5.71,5.71,0,0,0-4.63-1.82h-3.13v12.15Z"/><path class="cls-1" d="M423.23,344.21V346h-9.82V330.3h5.16a24.13,24.13,0,0,0,4.54-.34l.28,1.77a26.24,26.24,0,0,1-4.82.33h-3.35v5.17h6.87V339h-6.87v5.23Z"/><path class="cls-1" d="M432,339.2h-4.14V346h-1.81V330.3h5.55a6.56,6.56,0,0,1,3.74.94,3.83,3.83,0,0,1,1.61,3.37,4,4,0,0,1-3.05,4.19l3.87,7.16h-2.17Zm-4.14-1.77h4.05a3.37,3.37,0,0,0,2.37-.78,2.67,2.67,0,0,0,0-3.85,3.52,3.52,0,0,0-2.37-.74h-4Z"/><path class="cls-1" d="M146.32,229.85c-.75,5.85-1.13,8.77-1.88,14.61q-22.18-2.82-44.29-6.34,4.91-30.87,9.78-61.74c6.58,1,9.87,1.54,16.46,2.51q-3.47,23.64-6.94,47.27,13.41,2,26.87,3.69"/><path class="cls-1" d="M169,237.44c-1.89,3.77-2.83,5.66-4.74,9.43-7.37-.85-11.06-1.29-18.42-2.23q16.56-29.34,32.35-59.1c6.5.72,9.75,1.06,16.26,1.7q9.33,32.4,19.5,64.52c-7.35-.6-11-.92-18.38-1.61-1.12-4.09-1.67-6.14-2.78-10.23-9.52-.92-14.28-1.41-23.79-2.48m15.26-30.5c-3.39,6.83-5.1,10.23-8.55,17.05,5.32.57,8,.85,13.3,1.38-1.93-7.37-2.88-11.06-4.75-18.43"/><path class="cls-1" d="M264.56,204.62c-5.32,1.4-11.89,1.88-19.67,1.39q-1.51,23.88-3,47.77c-6.92-.44-10.37-.67-17.28-1.19q1.78-23.86,3.56-47.73c-7.19-.54-10.79-.83-18-1.45.51-5.84.77-8.76,1.28-14.59Q226.2,190,241,191.08c8.71.58,15.57.22,20.54-1,1.2,5.82,1.81,8.73,3,14.55"/><path class="cls-1" d="M319.27,206.32c-5.27,1.6-11.81,2.33-19.6,2.12q-.63,23.92-1.24,47.85c-6.92-.18-10.38-.29-17.3-.55q.89-23.91,1.78-47.82c-7.21-.27-10.82-.43-18-.78.29-5.86.43-8.78.72-14.63q14.79.68,29.59,1.16c8.73.25,15.56-.37,20.48-1.78,1.42,5.77,2.14,8.66,3.59,14.43"/><path class="cls-1" d="M324.35,194.23c9.15.08,13.72.09,22.87,0,8.74-.06,15.51-.92,20.32-2.51,1.66,5.72,2.5,8.58,4.19,14.29-5.39,1.79-13.38,2.79-24,2.86l-6.79,0c0,3.82,0,5.73,0,9.55,9.49,0,14.23-.07,23.71-.25.1,5.61.16,8.41.26,14-9.57.18-14.36.23-23.93.25,0,3.82,0,5.73,0,9.55q14.44,0,28.9-.35c.13,5.9.2,8.85.32,14.74q-23.25.42-46.5.29l.57-62.5"/><path class="cls-1" d="M470.26,188.21l5.7,62.24c-6.83.63-10.24.93-17.07,1.47q-1.5-18.6-3-37.2-4.93,19.13-10.08,38.2c-5.5.39-8.24.58-13.73.91q-7.66-18.2-15.09-36.51,1,18.65,2,37.28c-6.84.37-10.26.53-17.1.82q-1.33-31.21-2.66-62.45c9.18-.39,13.77-.62,22.95-1.15q7.5,19.71,15.31,39.29,5.06-20.46,9.85-41c9.17-.7,13.75-1.08,22.91-1.92"/><path class="cls-1" d="M485.75,249.52q-3-31.1-6.1-62.2c6.57-.65,9.86-1,16.44-1.71q3.39,31.06,6.81,62.13c-6.86.76-10.28,1.11-17.15,1.78"/><path class="cls-1" d="M574.74,238.12c-8.68,1.37-13,2-21.71,3.28-5.78-6-8.65-9-14.33-15-3.84,7.3-5.79,10.94-9.74,18.21-8.74,1.12-13.12,1.64-21.87,2.63q10-16.89,19.74-33.95-13.5-14-26.73-28.17c8.43-.95,12.64-1.45,21.06-2.53,5.4,6,8.13,9,13.64,15,3.72-7.2,5.55-10.81,9.17-18,8.4-1.21,12.6-1.84,21-3.17q-9,17.22-18.3,34.26,13.92,13.88,28.08,27.48"/><path class="cls-1" d="M99.93,73.75c-2.62,13.17-10.24,24.6-22.37,30.72a51.89,51.89,0,0,1-36.73,3.39c-12.7-3.62-25-10-32.87-21.15C-.23,75-1.92,60.4,2.06,46.74A48.73,48.73,0,0,1,26.81,16.45C37.87,10.94,51.37,10.1,63.32,13,78.7,16.83,92.1,26.09,98.23,41.13q-11.45,5-23,9.71c-2.19-8.48-9.7-14-17.66-16.28-5.22-1.46-12.78-.7-17.5,2.1-6,3.54-10,9.77-11.83,16.41S26.53,67.25,30,73.37,40.29,83.46,47.18,85.1c6.3,1.49,12,.8,16.74-1.82,5-2.77,9.25-9.52,10.14-15.13Q87,71.06,99.93,73.75"/><path class="cls-1" d="M185.5,121.11c-11.43,7.89-25.73,10.35-39.39,8.15s-26.34-8.84-34.6-20.06c-7.74-10.51-10.14-24.63-7.59-37.12A51.45,51.45,0,0,1,124.6,40.53c10.57-7.22,24.54-9.37,37-7.48a53.28,53.28,0,0,1,33,18.74c8,10,11.22,23.79,9.71,36.45s-8.12,25.47-18.82,32.87M173.79,65.93c-3.22-4.67-10.51-8.68-15.94-9.56S144.4,57.1,140,60.48c-4.63,3.54-8.7,11.05-9.72,16.65s.23,14.12,3.48,19,10.46,9,16.13,9.83c6.34.87,13.4-.32,18.68-4.23,4.82-3.58,8.46-11.28,9.25-16.94s-.67-14-4-18.84"/><path class="cls-1" d="M312.47,99c-.38,13.4-5.91,26-16.8,34.05a51.46,51.46,0,0,1-35.44,9.54c-13.05-1.42-26.2-5.64-35.69-15.28-10-10.15-14-24.3-12.42-38.39a48.85,48.85,0,0,1,19.16-34c9.88-7.29,23-10.42,35.17-9.53,15.73,1.13,30.39,8,38.89,21.79Q295,73.93,284.43,80.54c-3.56-8-11.83-12.2-20-13.06-5.36-.57-12.64,1.47-16.78,5-5.27,4.51-8.21,11.34-8.84,18.18s.66,14.26,5.13,19.7,11.71,8.21,18.74,8.66c6.41.41,11.85-1.23,16.1-4.62,4.47-3.58,7.47-11,7.4-16.62q13.15.67,26.31,1.16"/><path class="cls-1" d="M404.47,131.26c-9.91,9.69-23.56,14.52-37.38,14.65s-27.35-4.28-37.33-14c-9.37-9.06-14.07-22.58-13.67-35.3s5.88-25.73,15-34.59S353.64,48.7,366.2,48.47A53.09,53.09,0,0,1,401.8,61.4c9.6,8.54,15,21.57,15.67,34.3s-3.7,26.47-13,35.56M383.7,78.83c-4-4.06-11.79-6.79-17.29-6.74s-13.09,3-16.87,7.06c-4,4.26-6.69,12.35-6.75,18s2.59,13.87,6.6,18.13,11.78,7.16,17.49,7c6.38-.21,13.12-2.56,17.65-7.3,4.15-4.34,6.43-12.55,6.26-18.25s-3-13.72-7.09-17.91"/><path class="cls-1" d="M520.84,134q-13.26,1.66-26.53,3.11-19.85-22.81-38.77-46.4,2,24.83,4,49.64-13.61,1-27.2,1.89-2.79-47.14-5.57-94.31,12.36-.72,24.7-1.71,18.44,25.07,37.86,49.35-2.78-26.18-5.56-52.35,12.58-1.32,25.16-2.94,6,46.86,11.94,93.72"/><path class="cls-1" d="M549.59,34.36q4.45,27.51,8.9,55c.91,5.6,3.32,9.67,7.22,11.94,3.29,1.93,7.38,2.46,12.06,1.64s8.4-2.73,10.79-5.64c2.88-3.52,3.77-8.12,2.72-13.69q-5.16-27.39-10.34-54.77,12.57-2.37,25.06-5,6,28.46,12,56.92A34.65,34.65,0,0,1,611.26,111c-7.13,8.6-18.7,13.48-29.56,15.3-10.62,1.77-23.22,1-32.68-4.4-9.22-5.27-14.85-15.7-16.41-26.11l-8.1-57.6q12.56-1.77,25.08-3.8"/><path class="cls-1" d="M700,19.27C691.43,25,681.55,28.17,671.78,31q9.22,35,18.47,70-13.29,3.47-26.62,6.73l-17-70.31q-13.56,3.24-27.16,6.25Q617.09,32.8,614.73,22q22.18-4.9,44.19-10.51C669,8.67,679.45,5.73,688.34,0Q694.12,9.66,700,19.27"/></g></g></svg>