<svg xmlns="http://www.w3.org/2000/svg" viewBox="0 0 708.75 220.72"><defs><style>.cls-1{fill:#d0d0d0;}</style></defs><g id="Layer_2" data-name="Layer 2"><g id="Layer_1-2" data-name="Layer 1"><path class="cls-1" d="M151.55,71.45q1,9.21,2,18.41-28.92,3-57.76,6.84L85,18.87q11.65-1.53,23.31-3l7.5,59.57q17.85-2.14,35.73-4"/><path class="cls-1" d="M154.64,10.8q16.11-1.56,32.24-2.92c9.59-.9,19.36-1.85,28.52-5q3.36,8.84,6.68,17.66c-10.56,3.61-22,4.59-33,5.6-3.76.3-5.64.46-9.4.79.43,4.78.65,7.17,1.08,12q16.19-1.38,32.38-2.55.65,8.77,1.28,17.57-16,1.16-32.09,2.52c.44,4.79.65,7.18,1.08,12q19.13-1.64,38.27-3L223,83.94q-30.22,2.09-60.35,5-4-39.06-8-78.14"/><path class="cls-1" d="M331,1.11,332,79.64q-11.14.15-22.27.39l-1.11-46.88q-8.14,23.61-15.94,47.34-8.94.3-17.88.65Q265.21,58,255.33,35.07l2.4,46.84q-11.13.57-22.25,1.23Q233,43.94,230.54,4.75,246.74,3.79,263,3,273,27.82,282.72,52.76q7.74-25.56,15.86-51,16.23-.42,32.46-.63"/><path class="cls-1" d="M417.29,70.31c-8.75,7.37-20.15,10.88-31.64,10.69s-22.62-3.92-31-11.69a40.58,40.58,0,0,1-12.55-29c-.07-10.65,4.37-21.78,12.56-29.1C363.44,3.3,375.21-.18,387,0s23.58,4.19,32.22,12.22c8,7.46,12,18.73,11.59,29.48s-5.18,21.59-13.51,28.6M402,25.78a22.32,22.32,0,0,0-15.31-6.14,21.86,21.86,0,0,0-15.25,5.65c-4.27,4-6,10-6,15s1.56,10.95,5.7,15.07a21.73,21.73,0,0,0,14.83,6,22.13,22.13,0,0,0,15.26-5.53c4.33-4,6.07-9.92,6.21-14.88s-1.3-11-5.47-15.18"/><path class="cls-1" d="M512.88,86q-11-.87-22-1.66-13-21.72-26.45-43.14-1.17,20.67-2.36,41.34-11.25-.61-22.5-1.11l3.54-78.46q11.46.51,22.93,1.13,13.68,22.61,26.86,45.51l3.15-43.65q11.71.84,23.41,1.77Z"/><path class="cls-1" d="M610.72,58.59c-.67,5-1,7.48-1.67,12.46q-10.11-1.3-20.23-2.52-1.14,9.19-2.27,18.38c-5.49-.66-8.24-1-13.73-1.59L575,66.93q-10.31-1.16-20.63-2.21c.53-5,.79-7.49,1.31-12.5Q566,53.29,576.4,54.44q1.07-9.24,2.15-18.5c5.63.63,8.45,1,14.09,1.63l-2.28,18.49q10.18,1.21,20.36,2.53"/><path class="cls-1" d="M40.33,187.56c-3.78.64-5.67,1-9.45,1.63l5,27.72q-10.49,1.84-21,3.81-7.5-38.58-15-77.15,19.54-3.63,39.16-6.93c7.84-1.25,17-.85,23.7,3.71a22.64,22.64,0,0,1,9.64,15.34,26.33,26.33,0,0,1-1.77,13.89,23.85,23.85,0,0,1-9.4,11q13,13.95,25.69,28.1-12.52,1.83-25,3.84-10.77-12.56-21.69-25M42,170.76c3.41-.57,5.94-1.86,7.48-3.86a7.75,7.75,0,0,0,1.38-6c-.79-5.59-6.29-7.84-11.49-6.64-5.77,1-8.66,1.46-14.43,2.48q1.5,8.22,3,16.46c5.63-1,8.44-1.48,14.07-2.42"/><path class="cls-1" d="M111.74,192.65c-1.11,5.18-1.67,7.76-2.76,12.94q-11.26,1.53-22.53,3.17,9.75-41.25,20.75-82.18,10.83-1.38,21.67-2.68,21,37,40.92,74.54-11.25,1.16-22.49,2.41c-2.41-4.74-3.62-7.12-6.05-11.85q-14.76,1.74-29.51,3.65m9.71-41.74q-2.85,11.66-5.62,23.33,8.42-1.06,16.82-2.08-5.58-10.65-11.2-21.25"/><path class="cls-1" d="M187.47,166.44c.45,4.84,2.38,8.42,5.76,10.65,2.93,1.92,6.71,2.68,11.25,2.31,6.93-.55,10.22-3,9.88-7.41q-.27-3.47-4.87-5.36c-1.93-.83-6.61-2.14-14-3.82-5.78-1.31-11.8-2.88-17-5.8a19.27,19.27,0,0,1-9.92-15.17,21.15,21.15,0,0,1,7.62-18.43c5.92-4.67,13-6.68,20.24-7.52a38.24,38.24,0,0,1,18.85,2.82,25.65,25.65,0,0,1,13.17,12q-8.53,4.71-17,9.53A13.49,13.49,0,0,0,197.86,133a10.53,10.53,0,0,0-5.44,1.92,4.93,4.93,0,0,0-2.21,4.58q.31,3.47,5.2,5.19c1.56.62,5.57,1.39,11.59,2.66,6.56,1.37,13.49,3,19.36,6.57a19,19,0,0,1,8.86,14.82c.58,7.38-3,14.74-8.62,19.58-5.94,5.07-14.09,7.42-21.72,8.17a41.2,41.2,0,0,1-25.1-5.56,29.09,29.09,0,0,1-13.7-22.46q10.68-1.07,21.39-2"/><path class="cls-1" d="M279.49,112.09c8.81.15,18.34,1.28,25,7.49,5.29,4.94,8,12.18,8.19,19.22.24,7.45-2.25,15.39-7.69,20.84-6.44,6.44-15.82,7.89-24.52,8.67q-7.49.28-15,.65.54,11.14,1.09,22.3-10.59.51-21.19,1.13Q243,153.2,240.6,114q19.44-1.11,38.89-1.91m-.22,38.41c6.77-.24,11.76-4,11.47-11a9.1,9.1,0,0,0-3.44-7.17q-3.3-2.58-8.87-2.36-7.41.28-14.82.64.51,10.26,1,20.51c5.86-.28,8.79-.41,14.65-.64"/><path class="cls-1" d="M384,154.74a19.89,19.89,0,0,1,4.21,12.63,21,21,0,0,1-6.84,15c-5.18,4.76-12.32,6.9-19.38,6.78q-20.36,0-40.71.28-.74-39.27-1.46-78.53,19.57-.31,39.15-.3c7.4.48,14.42,1.55,20.28,6.21,3.54,2.82,6.31,8.62,6.11,13.11a17,17,0,0,1-3.95,10.48,19,19,0,0,1-11,6.28,23.84,23.84,0,0,1,13.61,8M352,141c6.36,0,9.55-2.23,9.57-6.72s-2.94-6.86-8.87-6.86c-4.32,0-6.48,0-10.8,0,0,5.43.05,8.15.09,13.58,4,0,6,0,10,0m2.94,31a12.7,12.7,0,0,0,8.35-2.56,7.56,7.56,0,0,0,2.82-6,6.71,6.71,0,0,0-2.65-5.51,12,12,0,0,0-7.7-2.26c-5.47,0-8.2,0-13.67,0q0,8.19.11,16.39c5.09,0,7.64-.05,12.74-.05"/><path class="cls-1" d="M399.46,111.16q15.27.39,30.52,1c9,.22,18.43.54,27.32-1.54q2.07,9.15,4.1,18.31c-10.3,2.31-21.09,1.93-31.57,1.64-3.56-.14-5.34-.21-8.89-.33-.17,4.8-.26,7.19-.43,12q15.3.52,30.6,1.32l-.93,17.59q-15.15-.75-30.31-1.3c-.17,4.79-.26,7.2-.43,12q18.06.68,36.12,1.62-.51,9.24-1,18.48-28.47-1.5-57-2.21,1-39.26,1.91-78.52"/><path class="cls-1" d="M499.14,166.62c-3.82-.3-5.72-.44-9.53-.72q-1,14-2.11,28.08-10.59-.75-21.18-1.41,2.46-39.19,4.93-78.38,19.8,1.23,39.57,2.82c7.89.69,16.61,3.31,22,9.35a22.46,22.46,0,0,1,5.46,17.21,26.64,26.64,0,0,1-5.2,13A24.19,24.19,0,0,1,521.19,165q9,16.67,17.77,33.47c-8.38-.85-16.76-1.62-25.15-2.36q-7.23-14.78-14.67-29.46M505,150.76c3.44.27,6.21-.35,8.2-1.91a7.85,7.85,0,0,0,2.85-5.51c.64-5.6-4.09-9.12-9.43-9.22-5.82-.47-8.74-.69-14.56-1.11q-.63,8.33-1.25,16.67c5.68.41,8.52.62,14.19,1.08"/><path class="cls-1" d="M579.22,174.56l-9.51-1.12q-1.66,14-3.35,28-10.54-1.23-21.11-2.33,4.2-39,8.41-78.09,19.74,2.08,39.43,4.52c7.87,1,16.48,4,21.57,10.29a22.45,22.45,0,0,1,4.71,17.43A26.71,26.71,0,0,1,613.58,166a24.27,24.27,0,0,1-12.24,7.85q8.29,17,16.3,34.21-12.51-1.82-25-3.44-6.58-15.09-13.37-30.08M585.8,159c3.43.42,6.22-.09,8.28-1.56a7.9,7.9,0,0,0,3.1-5.38c.89-5.57-3.7-9.29-9-9.62-5.8-.72-8.71-1.06-14.51-1.74q-1,8.31-2,16.6c5.66.66,8.49,1,14.15,1.7"/><path class="cls-1" d="M708.75,143.57Q688.07,165.2,668,187.36q-2.44,13.94-4.9,27.87-10.49-1.78-21-3.45,2.28-14,4.57-27.91Q635,156.5,622.71,129.45q12.78,1.8,25.53,3.77,6.3,16.64,12.37,33.34,11.21-13.87,22.59-27.6,12.79,2.22,25.55,4.61"/></g></g></svg>